<svg xmlns="http://www.w3.org/2000/svg" viewBox="0 0 209.86 209.86"><defs><style>.cls-1{fill:#33d6e0;}.cls-2{fill:#9fff65;}.cls-3{opacity:0.1;}.cls-4{fill:#230200;}</style></defs><title>Asset 1</title><g id="Layer_2" data-name="Layer 2"><g id="Layer_1-2" data-name="Layer 1"><path class="cls-1" d="M209.86,104.93c0,2.12-.06,4.24-.2,6.34a99.43,99.43,0,0,1-1.28,11.26,104,104,0,0,1-6.48,22.54,105.05,105.05,0,0,1-131,59.15,105.49,105.49,0,0,1-36-21.12,107,107,0,0,1-10.85-11.27A104.43,104.43,0,0,1,.2,111.27c-.14-2.1-.2-4.22-.2-6.34,0-1.65,0-3.3.13-4.93A107,107,0,0,1,1.24,88.73,98.06,98.06,0,0,1,3.65,77.46,101.69,101.69,0,0,1,7.38,66.2a105.26,105.26,0,0,1,5.27-11.27,100.27,100.27,0,0,1,7.1-11.27A104.92,104.92,0,0,1,202.47,66.2a99.69,99.69,0,0,1,3.74,11.26,102.49,102.49,0,0,1,2.41,11.27A107,107,0,0,1,209.73,100C209.81,101.63,209.86,103.28,209.86,104.93Z"/><path class="cls-2" d="M115.49,48.59V50a4.93,4.93,0,0,1-4.93,4.93H12.65a100.27,100.27,0,0,1,7.1-11.27h90.81A4.93,4.93,0,0,1,115.49,48.59Z"/><path class="cls-2" d="M105.63,59.86v1.41a4.94,4.94,0,0,1-4.93,4.93H7.38a105.26,105.26,0,0,1,5.27-11.27H100.7A4.93,4.93,0,0,1,105.63,59.86Z"/><path class="cls-2" d="M94.36,71.13v1.4a4.93,4.93,0,0,1-4.93,4.93H3.65A101.69,101.69,0,0,1,7.38,66.2H89.43A4.93,4.93,0,0,1,94.36,71.13Z"/><path class="cls-2" d="M138.94,204.22a105.39,105.39,0,0,1-68,0Z"/><path class="cls-2" d="M36.62,104.93v1.41a4.94,4.94,0,0,1-4.93,4.93H.2c-.14-2.1-.2-4.22-.2-6.34,0-1.65,0-3.3.13-4.93H31.69A4.93,4.93,0,0,1,36.62,104.93Z"/><path class="cls-2" d="M52.11,93.66v1.41A4.93,4.93,0,0,1,47.18,100H.13A107,107,0,0,1,1.24,88.73H47.18A4.93,4.93,0,0,1,52.11,93.66Z"/><path class="cls-2" d="M69,82.39V83.8a4.93,4.93,0,0,1-4.93,4.93H1.24A98.06,98.06,0,0,1,3.65,77.46H64.08A4.93,4.93,0,0,1,69,82.39Z"/><path class="cls-2" d="M209.86,104.93c0,2.12-.06,4.24-.2,6.34H99.29a5,5,0,0,1-4.93-4.93v-1.41A4.94,4.94,0,0,1,99.29,100H209.73C209.81,101.63,209.86,103.28,209.86,104.93Z"/><path class="cls-2" d="M209.66,111.27a99.43,99.43,0,0,1-1.28,11.26H148.59a4.93,4.93,0,0,1-4.93-4.93v-1.41a4.93,4.93,0,0,1,4.93-4.92Z"/><path class="cls-2" d="M208.38,122.53a102.86,102.86,0,0,1-2.55,11.27H176.76a4.93,4.93,0,0,1-4.93-4.93v-1.41a4.93,4.93,0,0,1,4.93-4.93Z"/><path class="cls-2" d="M85.91,176.76v1.41A4.94,4.94,0,0,1,81,183.1H34.93a107,107,0,0,1-10.85-11.27H81A4.93,4.93,0,0,1,85.91,176.76Z"/><path class="cls-2" d="M74.65,188v1.41a4.93,4.93,0,0,1-4.93,4.93H50A104.24,104.24,0,0,1,34.93,183.1H69.72A4.93,4.93,0,0,1,74.65,188Z"/><path class="cls-2" d="M142.79,7H67.07a105.32,105.32,0,0,1,75.72,0Z"/><path class="cls-2" d="M209.73,100H123.24a4.93,4.93,0,0,1-4.93-4.93V93.66a4.93,4.93,0,0,1,4.93-4.93h85.38A107,107,0,0,1,209.73,100Z"/><path class="cls-2" d="M208.62,88.73h-71.3a4.93,4.93,0,0,1-4.93-4.93V82.39a4.93,4.93,0,0,1,4.93-4.93h68.89A102.49,102.49,0,0,1,208.62,88.73Z"/><path class="cls-2" d="M206.21,77.46h-54.8a4.93,4.93,0,0,1-4.93-4.93v-1.4a4.93,4.93,0,0,1,4.93-4.93h51.06A99.69,99.69,0,0,1,206.21,77.46Z"/><path class="cls-2" d="M205.83,133.8a102,102,0,0,1-3.93,11.27H186.62a4.93,4.93,0,0,1-4.93-4.93v-1.41a4.93,4.93,0,0,1,4.93-4.93Z"/><g class="cls-3"><path class="cls-4" d="M209.86,104.93c0,2.12-.06,4.24-.2,6.34a99.43,99.43,0,0,1-1.28,11.26,104,104,0,0,1-6.48,22.54,104.77,104.77,0,0,1-95.56,64.77V0A104.81,104.81,0,0,1,202.47,66.2a99.69,99.69,0,0,1,3.74,11.26,102.49,102.49,0,0,1,2.41,11.27A107,107,0,0,1,209.73,100C209.81,101.63,209.86,103.28,209.86,104.93Z"/><path class="cls-4" d="M115.49,48.59V50a4.93,4.93,0,0,1-4.93,4.93h-4.22V43.66h4.22A4.93,4.93,0,0,1,115.49,48.59Z"/><path class="cls-4" d="M138.94,204.22a104.38,104.38,0,0,1-32.6,5.62v-5.62Z"/><path class="cls-4" d="M209.86,104.93c0,2.12-.06,4.24-.2,6.34H106.34V100H209.73C209.81,101.63,209.86,103.28,209.86,104.93Z"/><path class="cls-4" d="M209.66,111.27a99.43,99.43,0,0,1-1.28,11.26H148.59a4.93,4.93,0,0,1-4.93-4.93v-1.41a4.93,4.93,0,0,1,4.93-4.92Z"/><path class="cls-4" d="M208.38,122.53a102.86,102.86,0,0,1-2.55,11.27H176.76a4.93,4.93,0,0,1-4.93-4.93v-1.41a4.93,4.93,0,0,1,4.93-4.93Z"/><path class="cls-4" d="M142.79,7H106.34V0A104.55,104.55,0,0,1,142.79,7Z"/><path class="cls-4" d="M209.73,100H123.24a4.93,4.93,0,0,1-4.93-4.93V93.66a4.93,4.93,0,0,1,4.93-4.93h85.38A107,107,0,0,1,209.73,100Z"/><path class="cls-4" d="M208.62,88.73h-71.3a4.93,4.93,0,0,1-4.93-4.93V82.39a4.93,4.93,0,0,1,4.93-4.93h68.89A102.49,102.49,0,0,1,208.62,88.73Z"/><path class="cls-4" d="M206.21,77.46h-54.8a4.93,4.93,0,0,1-4.93-4.93v-1.4a4.93,4.93,0,0,1,4.93-4.93h51.06A99.69,99.69,0,0,1,206.21,77.46Z"/><path class="cls-4" d="M205.83,133.8a102,102,0,0,1-3.93,11.27H186.62a4.93,4.93,0,0,1-4.93-4.93v-1.41a4.93,4.93,0,0,1,4.93-4.93Z"/><polyline class="cls-4" points="106.34 0.01 106.34 7.04 106.34 43.66 106.34 54.93 106.34 100 106.34 111.27 106.34 204.22 106.34 209.84"/></g></g></g></svg>