<svg xmlns="http://www.w3.org/2000/svg" viewBox="0 0 360.14 191"><defs><style>.cls-1{fill:#33d6e0;}.cls-2{fill:#9fff65;}.cls-3{opacity:0.1;}.cls-4{fill:#230200;}</style></defs><title>Asset 2</title><g id="Layer_2" data-name="Layer 2"><g id="Layer_1-2" data-name="Layer 1"><path class="cls-1" d="M.34,190.87C.1,187.27,0,183.65,0,180q0-4.25.22-8.46a181.24,181.24,0,0,1,1.91-19.33,169,169,0,0,1,4.13-19.32,173,173,0,0,1,6.41-19.33,179.23,179.23,0,0,1,9-19.33A174.06,174.06,0,0,1,33.89,74.9a180.1,180.1,0,0,1,313.58,38.66,175,175,0,0,1,6.41,19.33A169,169,0,0,1,358,152.21a181.24,181.24,0,0,1,1.91,19.33q.22,4.22.22,8.46c0,3.65-.1,7.27-.34,10.87"/><path class="cls-2" d="M198.2,83.36v2.41a8.48,8.48,0,0,1-8.46,8.46h-168A174.06,174.06,0,0,1,33.89,74.9H189.74A8.47,8.47,0,0,1,198.2,83.36Z"/><path class="cls-2" d="M181.28,102.68v2.42a8.48,8.48,0,0,1-8.46,8.46H12.67a179.23,179.23,0,0,1,9-19.33H172.82A8.47,8.47,0,0,1,181.28,102.68Z"/><path class="cls-2" d="M161.94,122v2.42a8.47,8.47,0,0,1-8.46,8.46H6.26a173,173,0,0,1,6.41-19.33H153.48A8.46,8.46,0,0,1,161.94,122Z"/><path class="cls-2" d="M62.84,180v2.42a8.46,8.46,0,0,1-8.46,8.45H.34C.1,187.27,0,183.65,0,180q0-4.25.22-8.46H54.38A8.47,8.47,0,0,1,62.84,180Z"/><path class="cls-2" d="M89.43,160.67v2.42A8.46,8.46,0,0,1,81,171.54H.22a181.24,181.24,0,0,1,1.91-19.33H81A8.47,8.47,0,0,1,89.43,160.67Z"/><path class="cls-2" d="M118.44,141.34v2.42a8.47,8.47,0,0,1-8.46,8.45H2.13a169,169,0,0,1,4.13-19.32H110A8.47,8.47,0,0,1,118.44,141.34Z"/><path class="cls-2" d="M360.14,180c0,3.65-.1,7.27-.34,10.87H170.4a8.47,8.47,0,0,1-8.46-8.45V180a8.48,8.48,0,0,1,8.46-8.46H359.92Q360.15,175.76,360.14,180Z"/><path class="cls-2" d="M245,12.08H115.1a180.75,180.75,0,0,1,129.94,0Z"/><path class="cls-2" d="M359.92,171.54H211.49a8.47,8.47,0,0,1-8.46-8.45v-2.42a8.48,8.48,0,0,1,8.46-8.46H358A181.24,181.24,0,0,1,359.92,171.54Z"/><path class="cls-2" d="M358,152.21H235.66a8.47,8.47,0,0,1-8.46-8.45v-2.42a8.47,8.47,0,0,1,8.46-8.45H353.88A169,169,0,0,1,358,152.21Z"/><path class="cls-2" d="M353.88,132.89H259.83a8.48,8.48,0,0,1-8.46-8.46V122a8.47,8.47,0,0,1,8.46-8.45h87.64A175,175,0,0,1,353.88,132.89Z"/><g class="cls-3"><path class="cls-4" d="M182.14,191l.35-191a179.91,179.91,0,0,1,165,113.54,175,175,0,0,1,6.41,19.33A169,169,0,0,1,358,152.21a181.24,181.24,0,0,1,1.91,19.33q.22,4.22.22,8.46c0,3.65-.1,7.27-.34,10.87"/><path class="cls-4" d="M198.2,83.36v2.41a8.48,8.48,0,0,1-8.46,8.46h-7.25V74.9h7.25A8.47,8.47,0,0,1,198.2,83.36Z"/><path class="cls-4" d="M360.14,180c0,3.65-.1,7.27-.34,10.87H182.49V171.54H359.92Q360.15,175.76,360.14,180Z"/><path class="cls-4" d="M245,12.08H182.49V0A179.2,179.2,0,0,1,245,12.08Z"/><path class="cls-4" d="M359.92,171.54H211.49a8.47,8.47,0,0,1-8.46-8.45v-2.42a8.48,8.48,0,0,1,8.46-8.46H358A181.24,181.24,0,0,1,359.92,171.54Z"/><path class="cls-4" d="M358,152.21H235.66a8.47,8.47,0,0,1-8.46-8.45v-2.42a8.47,8.47,0,0,1,8.46-8.45H353.88A169,169,0,0,1,358,152.21Z"/><path class="cls-4" d="M353.88,132.89H259.83a8.48,8.48,0,0,1-8.46-8.46V122a8.47,8.47,0,0,1,8.46-8.45h87.64A175,175,0,0,1,353.88,132.89Z"/><polyline class="cls-4" points="182.49 0.02 182.49 12.08 182.49 74.9 182.49 94.23 182.49 171.54 182.49 190.87"/></g></g></g></svg>